<?xml version="1.0" encoding="utf-8"?>
<!-- Generator: Adobe Illustrator 27.5.0, SVG Export Plug-In . SVG Version: 6.00 Build 0)  -->
<svg version="1.1" xmlns="http://www.w3.org/2000/svg" xmlns:xlink="http://www.w3.org/1999/xlink" x="0px" y="0px"
	 viewBox="0 0 1122 1122" style="enable-background:new 0 0 1122 1122;" xml:space="preserve">
<g id="Bg">
	<rect style="fill:#FFFFFF;" width="1122" height="1122"/>
</g>
<g id="Object">
	<g>
		<path style="fill:#212124;" d="M936.975,473.784c-4.049-5.891-9.134-10.462-15.292-13.913c-2.122-1.19-4.537-1.863-6.186,0.651
			c-1.463,2.23-0.298,4.112,1.535,5.64c0.357,0.297,0.732,0.581,1.042,0.923c7.056,7.771,15.025,14.999,17.408,25.834
			c1.903,8.66,2.238,17.475,1.432,26.32c-1.233,13.534-5.336,26.301-10.346,38.828c-0.883,1.617-1.789,3.223-2.646,4.853
			c-5.963,11.347-10.096,23.701-18.436,33.742c-13.1,15.772-27.8,29.944-43.436,43.162c-1.175,0.994-2.203,2.633-4.293,2.206
			c-3.445-24.436-6.78-48.82-10.358-73.168c-1.866-12.69-3.333-25.471-7.014-37.832c-0.233-1.181-0.328-2.411-0.724-3.535
			c-0.976-2.767-2.641-4.986-5.895-4.836c-3.023,0.139-4.484,2.297-5.234,4.987c-0.285,1.022-0.441,2.081-0.656,3.123
			c0.173-0.154,0.369-0.297,0.56-0.442c-0.121,0.183-0.281,0.344-0.56,0.442c-1.997,10.262-2.604,20.671-3.291,31.071
			c-3.207,8.29-7.442,16.095-11.332,24.063c-5.87,11.349-13.694,21.222-22.76,30.158c-1.47,0.673-2.66,1.674-3.547,3.029
			c-1.508,1.023-3.015,2.045-4.523,3.068h-0.001c-2.422,0.872-4.078,0.839-3.551-2.558c0.225-1.453-0.047-2.984-0.093-4.48
			c-0.227,0.324-0.414,0.657-0.576,0.994c0.028-0.373,0.159-0.72,0.576-0.994c0.158-1.052,0.455-2.104,0.454-3.156
			c-0.02-14.791,0.123-29.586-0.204-44.371c-0.215-9.692-1.115-19.371-4.288-28.663c-0.32-3.051-1.221-5.877-3.198-8.285
			c-0.963-3.109-3.238-4.579-6.287-4.06c-4.12,0.702-5.578,3.856-5.906,7.685c-1.382,3.301-1.724,6.809-2.072,10.318
			c-6.889,8.812-12.272,18.584-17.921,28.185c-2.056,2.782-5.245,4.776-5.919,8.518c-4.027,1.865-6.487,5.589-9.813,8.285
			c-0.543,0.336-1.087,0.67-1.63,1.006c-1.759,0.307-1.888-0.823-2.071-2.147c-0.396-2.866-0.948-5.71-1.437-8.563
			c0.08-4.695,2.102-9.499-0.781-14.029c-1.13-2.257-1.904-4.734-3.972-6.41c-0.164,0.121-0.292,0.265-0.395,0.424
			c-0.004-0.014-0.013-0.027-0.017-0.041c0.138-0.127,0.276-0.254,0.412-0.383c-0.655-1.505-1.575-2.766-3.151-3.424v0
			c-1.307-1.611-2.747-3.048-4.813-3.663c-7.242-5.335-15.048-7.888-23.985-4.86c-4.625,0.8-8.501,2.982-11.733,6.353
			c-8.809,6.557-15.448,15.06-20.996,24.356c-6.192,10.377-11.189,21.309-12.383,33.583c-2.28,10.477-1.493,20.762,1.934,30.882
			c1.042,3.216,0.04,5.705-2.12,8.288c-3.024,3.614-5.888,7.423-7.931,11.74c-3.753,4.114-5.95,9.461-10.343,13.451
			c-0.525-1.575-0.979-2.934-1.415-4.246c-0.09-0.374-0.235-0.749-0.375-1.125c-1.865-11.49-4.41-22.825-7.766-33.975
			c0,0,0-0.001,0-0.001v0c-2.731-12.877-8.084-24.754-14.074-36.358c-1.668-3.233-3.639-6.397-6.715-8.612
			c-0.195-0.384-0.288-0.933-0.601-1.127c-4.957-3.09-8.696-0.112-9.198,7.298c0.167-0.341,0.318-0.65,0.47-0.961
			c-0.038,0.347-0.15,0.677-0.47,0.961c-0.21,0.201-0.214,0.407-0.015,0.618c-0.149,0.472-0.214,0.945-0.232,1.42
			c-1.32,8.01-2.117,16.081-4.03,24.038c-5.825,24.23-15.308,46.86-28.224,68.111c-8.083,9.451-14.439,20.691-26.698,26.777
			c-0.052-0.029-0.102-0.038-0.153-0.072c-0.024-0.016-0.04-0.037-0.063-0.053c0.156-11.474,0.424-22.045,0.411-32.612
			c-0.021-15.597,1.357-31.225-0.681-46.784c-1.099-8.395-2.028-16.866-6.141-24.521c0,0,0-0.001,0-0.001
			c-2.154-6.121-5.643-11.249-11.098-14.912c-5.442-4.491-10.196-5.015-16.195-1.786c-5.827,2.397-8.96,7.223-11.411,12.662
			c-9.303,16.816-13.364,35.484-18.956,53.612c-2.064,6.04-4.129,12.08-6.194,18.12c-1.747-1.609-1.187-3.786-1.065-5.646
			c0.525-8.002-0.255-15.943-0.804-23.895c-0.111-1.606,0.34-3.452-1.253-4.7c-2.201-9.375-4.379-18.759-10.858-26.372
			c-1.176-2.62-3.16-4.34-5.861-5.262c-3.576-1.974-7.062-1.289-8.838,2.067c-6.134,11.59-12.958,22.91-16.093,35.858
			c-3.364,7.175-6.728,14.349-10.092,21.524c-0.099,0.212-0.198,0.423-0.298,0.635c-1.345,1.763-2.925,3.372-3.647,5.545
			c-1.099,1.415-2.198,2.83-3.297,4.245c-1.508,0.804-2.314,2.152-2.862,3.7c-1.31,1.516-2.823,2.896-3.304,4.963
			c-1.141,1.04-2.023,2.258-2.546,3.72c-2.774,2.96-5.028,6.279-6.833,9.908c-3.104,4.034-6.411,7.935-8.357,12.73
			c-0.282,0.346-0.565,0.692-0.847,1.038c-4.139,4.552-8.277,9.104-12.416,13.655c-4.08,3.899-8.16,7.798-12.24,11.697
			c-1.443,0.823-2.633,1.916-3.548,3.306c-6.926,5.908-13.774,11.914-21.529,16.76c-12.242,7.65-25.082,12.726-39.904,9.402
			c-1.127-0.472-2.265-0.921-3.382-1.419c-14.406-6.424-26.985-15.318-32.988-30.358c-8.124-20.354-13.657-41.546-13.651-63.666
			c0.013-47.164,12.706-91.074,34.833-132.485c1.46-2.734,2.692-2.543,4.988-1.29c6.937,3.783,14.047,7.27,21.708,9.336
			c13.092,3.53,26.316,5.644,39.858,2.618c4.282-0.176,8.291-1.302,12.009-3.442c-0.003,0.004-0.006,0.006-0.009,0.009
			c4.054-0.979,7.634-2.902,10.879-5.486c1.75-0.556,3.227-1.517,4.382-2.956c10.106-7.044,17.741-16.105,22.478-27.533
			c0.794-0.196,1.33-0.659,1.73-1.395c4.861-8.934,8.277-18.381,9.137-28.538c1.372-16.199-5.707-28.585-19.649-35.106
			c-1.345-1.325-2.938-2.172-4.803-2.491c-2.906-1.859-6.041-3.017-9.525-3.107c-14.805-2.408-28.332,2.417-41.829,7.401h-0.001
			c-1.036,0.279-2.095,0.492-3.106,0.844c-21.713,7.56-38.696,21.771-53.825,38.512c-2.313,2.558-3.172,2.716-4.926-0.617
			c-8.822-16.764-13.194-34.466-13.875-53.45c-0.826-23.003,3.653-45.232,7.098-67.748c5.649-36.934,22.711-68.438,43.475-98.491
			c11.643-16.851,23.911-33.127,40.958-45.091c6.543-4.592,13.471-8.026,21.458-9.39c10.434-1.781,20.879-2.479,31.427-1.588
			c3.875,0.975,7.749,1.95,11.624,2.924c9.227,2.84,17.166,8.131,25.202,13.239c5.373,4.651,10.237,9.797,14.807,15.228
			c0,0,0.001,0,0.001,0.001c9.166,12.788,15.758,26.707,18.58,42.282c0.15,1.994,0.264,3.992,0.457,5.982
			c0.517,5.337,0.542,5.278-4.752,4.274c-13.887-2.631-26.447,1.077-38.284,8.138c-8.561,5.076-15.189,12.138-19.744,20.853
			c-4.684,8.963-6.389,18.559-3.292,28.562c0.958,5.275,3.2,9.855,7.276,13.442c3.234,3.957,7.471,6.004,12.493,6.551
			c14.1,3.706,36.691-5.107,44.325-17.951c6.717-11.302,9.963-23.866,11.185-36.94c-0.025-0.307-0.05-0.614-0.074-0.921
			c1.231-1.405,0.835-3.053,0.697-4.662c0.012,0.01,0.015,0.022,0.026,0.032c0.648-1.544,0.893-3.981,3.119-0.995
			c3.884,5.209,7.331,10.566,9.228,16.915c1.986,6.651,3.213,13.444,4.669,20.199c0.333,0.213,0.495,0.519,0.581,0.865
			c-0.189-0.306-0.379-0.605-0.581-0.865c0.425,2.197-1.054,5.606,2.119,6.132c2.631,0.436,2.984-2.317,2.783-4.581
			c-0.017-0.771-0.149-1.56-0.031-2.31c1.646-10.441-1.241-19.999-5.634-29.271c-3.29-7.32-8.051-13.397-14.939-17.674
			c-0.254-2.302-0.484-4.606-0.768-6.903c-1.016-8.229-1.741-16.519-4.832-24.322c-0.079-0.331-0.189-0.657-0.371-0.973
			c-2.926-11.098-8.501-20.791-15.71-29.617c-12.536-18.258-30.129-29.218-51.199-34.763c-6.626-1.744-13.294-4.104-20.391-3.384
			c-3.658-1.29-7.661,0.596-11.261-1.227c-1.547,0.098-3.093,0.196-4.64,0.295c-1.856,0.118-3.711,0.236-5.567,0.354
			c-1.856,0.118-3.712,0.236-5.568,0.354c-0.427,1.83-2.204,1.556-3.355,1.857c-9.249,2.417-17.481,6.81-25.419,12.051
			c-21.263,14.038-38.72,32.269-56.139,50.536c-18.813,19.728-32.152,42.7-39.91,68.862c-4.975,16.781-9.053,33.786-12.468,50.948
			c-4.303,21.624-4.572,43.354-1.584,65.164c3.167,23.111,13.757,42.818,27.872,60.913c1.411,1.808,3.094,3.214,1.076,5.961
			c-9.189,12.502-16.636,26.075-23.863,39.769c-5.119,6.94-7.979,14.945-10.813,22.961c-0.53,1.913-2.039,3.595-1.369,5.791
			c-2.275,8.201-4.55,16.401-6.825,24.602c-0.335,0.483-0.871,0.926-0.975,1.455c-5.511,27.983-9.438,56.052-2.848,84.41
			c1.374,5.913,2.245,12.092,5.693,17.368c2.961,7.567,5.922,15.133,8.883,22.699c-0.398,1.465,0.544,2.535,1.094,3.72
			c0.721,1.999,1.275,4.102,3.275,5.312c1.224,1.956,2.429,3.926,3.675,5.867c10.96,17.068,27.187,26.822,45.94,33.065
			c6.686,3.116,13.844,4.048,21.089,4.298c24.366,0.838,42.211-12.203,58.805-27.839c10.035-8.282,18.135-18.464,27.171-27.727
			c3.539-3.628,7.038-7.362,9.498-11.887c2.334-2.24,4.022-4.904,5.186-7.911c2.82-3.866,4.487-8.337,6.615-12.568
			c3.529-2.311,4.644-6.323,6.771-9.621c1.355-1.026,2.233-2.352,2.549-4.034c1.448-1.42,2.993-2.767,3.563-4.833
			c3.043-3.321,4.963-7.289,6.566-11.438c4.76-4.929,6.728-11.309,9.085-17.487c2.309-3.418,2.877-7.441,3.873-11.303
			c2.113-8.196,5.579-15.773,10.274-23.929c0.112,0.023,0.196,0.07,0.295,0.104c0.148,2.337,0.239,3.762,0.329,5.174
			c-2.599,15.545-5.319,31.07-7.762,46.64c-2.38,15.164-3.762,30.406-1.332,45.711c1.284,8.09,3.768,15.718,10.609,20.992
			c7.85,6.053,17.33,3.521,21.294-5.55c4.492-9.275,5.73-19.379,7.473-29.354c2.8-10.222,4.698-20.632,6.452-31.072h0.001
			c0.488-1.601,1.043-3.186,1.455-4.807c4.059-15.968,7.387-32.144,13.647-47.482c2.768-6.783,6.256-13.051,12.131-17.694
			c0.538,0.06,1.075,0.119,1.612,0.179c-0.281-0.227-0.542-0.511-0.823-0.74c0.285,0.095,0.561,0.309,0.823,0.74
			c1.433,3.705,1.588,7.554,1.143,11.43c-1.766,15.364-3.861,30.697-5.301,46.091c-1.419,15.162-1.576,30.342,4.218,44.859
			c2.179,5.459,4.665,10.803,9.934,14.137c6.318,5.345,14.579,6.321,21.739,2.271c3.175-1.796,6.061-4.104,9.078-6.179
			c8.536-4.588,13.842-12.351,19.463-19.805c0,0,0,0,0.001-0.001c1.794-1.638,3.118-3.611,4.12-5.812
			c8.093-12.318,14.089-25.655,19.145-39.448c2.836-6.355,4.416-13.093,6.036-19.819c1.858,1.32,1.178,3.348,1.327,5.087
			c0.719,8.399,0.067,16.876,1.38,25.246c-0.044,0.304-0.03,0.605,0.042,0.904c-0.859,1.279-0.424,2.693-0.354,4.039
			c0.801,15.343,1.64,30.685,2.468,46.027c-6.02,7.055-11.513,14.656-18.16,21.061c-19.248,18.549-36.021,39.163-51.967,60.497
			c-17.359,23.223-29.28,48.789-31.887,78.015c-1.33,14.902,0.841,29.283,8.683,42.404c1.059,2.854,2.771,5.241,5.12,7.175
			c7.416,9.391,17.398,13.61,29.072,13.729c17.654,0.179,33.358-5.43,47.008-16.741c12.675-10.503,22.517-23.267,30.43-37.607
			c1.759-0.662,1.784-2.526,2.644-3.81h0.001c7.636-14.757,12.463-30.453,15.595-46.714l-0.001,0
			c7.11-35.483,10.659-71.234,8.289-107.455c-0.921-14.081-3.375-27.937-5.693-41.819c6.789-9.781,13.558-19.574,20.392-29.324
			c0.837-1.194,1.318-3.571,3.707-1.849c0.334,1.144,0.879,2.122,2.052,2.607c13.399,18.786,43.116,17.051,54.927-3.206
			c2.355-2.549,3.875-5.572,5.003-8.816c2.666-4.144,4.522-8.63,5.651-13.422c1.371-2.38,2.047-4.965,2.276-7.684
			c2.333-7.062,3.617-14.337,4.404-21.712c2.354-2.578,5.776-3.945,7.814-6.883c4.935-3.809,8.973-8.412,12.186-13.747l0,0
			c2.248-2.273,3.902-4.923,5.04-7.902c3.4-4.241,5.375-9.329,8.255-13.879c2.082,1.114,0.513,3.319,1.43,4.781
			c-0.117,1.536-0.195,3.076-0.356,4.607c-1.31,12.436-2.394,24.902-0.787,37.37c1.04,8.063,2.099,16.239,7.695,22.819
			c4.65,6.461,10.734,7.973,18.346,4.559c4.755-1.432,8.466-4.367,11.644-8.073c3.818-3.072,6.916-6.775,9.542-10.89
			c2.465-2.281,4.483-4.902,6.009-7.899c7.348-8.551,11.572-18.978,17.026-29.228c0.044,0.003,0.079,0.016,0.121,0.021
			c0.305,1.263,0.479,1.982,0.649,2.684c-1.219,26.873-1.315,53.769-1.31,80.66c0,4.878-1.386,7.973-5.334,10.759
			c-18.398,12.983-33.134,29.565-46.101,47.82c-1.664,1.271-2.853,2.879-3.484,4.885c-1.393,0.955-2.252,2.268-2.621,3.911
			c-0.394,0.469-0.878,0.888-1.17,1.414c-17.766,32.104-25.46,65.912-16.816,102.311c2.316,9.753,5.163,19.426,11.502,27.568
			c2.377,4.295,5.576,7.805,9.839,10.297c9.018,7.218,19.288,8.601,30.14,5.896c17.967-4.479,30.62-16.061,40.375-31.234
			c7.82-12.164,13.344-25.395,17.83-39.088c3.024-4.655,3.543-10.115,4.686-15.317c6.478-29.477,6.546-59.273,3.829-89.142
			c-1.443-15.868-3.339-31.695-5.031-47.54c18.806-13.656,34.455-30.597,49.755-47.892c2.654-3,5.38-5.987,7.21-9.623
			c1.307-1.058,2.431-2.225,2.405-4.07c0,0,0.001,0,0.001,0c0.56-1,1.12-1.999,1.68-2.999c1.76-1.061,2.276-2.828,2.654-4.673
			c2.13-4.284,5.312-8.113,5.67-13.16c1.298-0.579,1.871-1.563,1.662-2.982c1.725-0.263,1.955-1.838,2.556-3.019
			c8.271-16.238,13.039-33.41,13.14-51.69C947.212,500.788,945.676,486.442,936.975,473.784z M271.461,523.424
			c14.363-24.003,32.422-44.084,58.336-56.033c0.261-0.12,0.444-0.409,0.662-0.62c8.424-3.316,16.696-7.508,26.208-4.546
			c6.325,3.063,13.405,5.019,17.227,11.749c3.26,4.904,4.378,10.269,3.771,16.118c-0.807,7.785-3.273,15.027-7.086,21.779
			c-2.712,4.803-5.844,9.368-8.788,14.04c-3.507,3.632-7.014,7.264-10.521,10.897c-4.215,2.441-8.43,4.881-12.645,7.321l-0.001,0
			c-9.473,3.288-19.035,5.125-29.145,3.117c-7.664-1.522-14.757-4.493-21.902-7.42c-4.984-3.372-9.892-6.866-14.983-10.068
			C269.638,527.9,269.756,526.274,271.461,523.424z M401.995,372.589c-4.487-1.26-7.273-4.386-9.853-7.895
			c-1.143-3.026-2.286-6.051-3.43-9.076c-0.513-4.915,0.166-9.756,0.905-14.593c0.025-0.062,0.054-0.119,0.08-0.181
			c6.923-16.62,19.202-26.594,36.936-30.089c6.25-1.232,12.237-0.874,18.318,0.798c2.617,0.719,3.482,1.996,3.258,4.596
			c-0.41,4.764-0.609,9.545-0.896,14.32c-1.68,7.816-3.065,15.701-6.123,23.163C435.612,367.242,416.227,376.587,401.995,372.589z
			 M452.764,281.616c0.001,0.046,0.003,0.092,0.005,0.138c-0.005-0.006-0.008-0.012-0.013-0.018c-0.011-0.034-0.02-0.069-0.03-0.103
			C452.739,281.628,452.752,281.621,452.764,281.616z M526.136,914.756c-7.942,2.77-14.81,1.808-21.021-3.839
			c-1.736-2.682-3.471-5.363-5.207-8.044c-9.205-24.141-2.915-46.983,6.398-69.301c8.257-19.788,22.148-36.076,34.99-52.921
			c6.554-8.597,13.908-16.583,20.9-24.845c5.457-4.889,10.347-10.307,14.921-16.018c1.081-1.059,2.162-2.119,3.244-3.178
			c1.281,0.822,1.076,2.148,1.018,3.337c-0.466,9.363-0.783,18.739-1.531,28.08c-1.006,12.556-2.357,25.085-3.56,37.625
			c-0.059,0.277-0.125,0.553-0.19,0.83c-0.178,0.758-0.358,1.515-0.466,2.283c-1.99,14.164-2.957,28.461-5.674,42.534
			c-0.84,4.35-2.859,8.445-2.753,12.989c-1.593,1.206-1.947,2.847-1.649,4.716c-3.801,11.28-10.459,20.98-16.994,30.749
			C542.294,906.559,534.996,911.666,526.136,914.756z M704.558,577.161c1.834-0.463,3.586,0.067,5.352,0.434
			c0.1,0.09,0.185,0.185,0.28,0.276c4.652,4.441,4.631,10.307,4.726,16.138c-6.059,2.657-10.635,1.219-15.082-4.74
			C700.159,584.745,701.471,580.606,704.558,577.161z M685.659,648.198c-4.127,0.605-7.212-0.722-8.722-4.998
			c-4.169-11.804-6.658-23.771-4.575-36.376c1.436-8.688,2.503-17.451,5.502-25.79c2.472-6.874,5.797-13.288,10.823-18.7
			c1.491-0.754,2.982-1.508,4.472-2.262c3.006,0.12,6.012,0.239,9.017,0.359c3.084,1.41,6.11,2.921,8.801,5.018
			c0.025,0.033,0.049,0.066,0.074,0.099c1.464,1.968,2.927,3.936,4.39,5.904c-0.404,0.711-1.042,1.036-1.833,1.108
			c-5.397-4.943-9.276-5.624-15.21-2.67c-4.08,1.91-6.589,5.383-8.759,9.089c-7.793,13.305-0.786,26.995,14.686,28.812
			c2.323,0.914,4.571,0.75,6.747-0.456c1.404,0.148,1.695,0.825,1.271,2.166c-0.732,2.31-1.287,4.676-1.917,7.019
			c-1.297,3.209-2.596,6.418-3.894,9.627c-1.507,2.048-2.692,4.267-3.526,6.671c-3.555,5.014-7.196,9.952-12.049,13.835
			C689.194,647.182,687.462,647.934,685.659,648.198z M779.156,727.867c12.125-16.131,24.717-31.821,41.937-42.989
			c3.039-1.806,1.997,1.087,2.011,1.977c0.11,6.81,0.098,13.623,0.038,20.435c-0.288,32.912-2.863,65.561-11.327,97.524v0
			c-0.477,0.694-0.953,1.388-1.431,2.082c-2.315,8.692-5.256,17.166-9.028,25.332c-2.952,6.389-6.804,12.15-12.405,16.58
			c-6.518,5.154-10.79,4.804-16.441-1.431c-1.547-1.707-2.946-3.547-4.414-5.326c-6.213-12.432-11.135-25.333-11.064-39.416
			C757.17,775.633,762.496,750.03,779.156,727.867z"/>
		<path style="fill:#212124;" d="M582.859,569.784c3.614-0.194,6.283-3.378,6.175-7.367c-0.113-4.199-3.168-7.322-6.972-7.127
			c-3.604,0.186-6.336,3.429-6.209,7.37C575.987,566.786,579.13,569.984,582.859,569.784z"/>
	</g>
</g>
</svg>
